<svg width="48" height="48" viewBox="0 0 48 48" fill="none" xmlns="http://www.w3.org/2000/svg">
<path d="M38.28 25.88C38.36 25.28 38.4 24.6601 38.4 24.0001C38.4 23.3601 38.36 22.7201 38.26 22.1201L42.32 18.96C42.68 18.68 42.78 18.14 42.56 17.7401L38.72 11.1C38.48 10.66 37.98 10.52 37.54 10.66L32.76 12.58C31.76 11.82 30.7 11.18 29.52 10.7L28.8 5.62005C28.72 5.14005 28.32 4.80005 27.84 4.80005H20.16C19.68 4.80005 19.3 5.14005 19.22 5.62005L18.5 10.7C17.32 11.18 16.24 11.84 15.26 12.58L10.48 10.66C10.04 10.5 9.53998 10.66 9.29998 11.1L5.47998 17.7401C5.23998 18.1601 5.31998 18.68 5.71998 18.96L9.77998 22.1201C9.67998 22.7201 9.59998 23.3801 9.59998 24.0001C9.59998 24.6201 9.63998 25.28 9.73998 25.88L5.67998 29.0401C5.31998 29.3201 5.21998 29.8601 5.43998 30.2601L9.27998 36.9001C9.51998 37.3401 10.02 37.4801 10.46 37.3401L15.24 35.4201C16.24 36.1801 17.3 36.8201 18.48 37.3001L19.2 42.3801C19.3 42.8601 19.68 43.2001 20.16 43.2001H27.84C28.32 43.2001 28.72 42.8601 28.78 42.3801L29.5 37.3001C30.68 36.8201 31.76 36.1801 32.74 35.4201L37.52 37.3401C37.96 37.5001 38.46 37.3401 38.7 36.9001L42.54 30.2601C42.78 29.8201 42.68 29.3201 42.3 29.0401L38.28 25.88ZM24 31.2001C20.04 31.2001 16.8 27.9601 16.8 24.0001C16.8 20.0401 20.04 16.8 24 16.8C27.96 16.8 31.2 20.0401 31.2 24.0001C31.2 27.9601 27.96 31.2001 24 31.2001Z" fill="#4285F4"/>
</svg>
