<svg width="48" height="48" viewBox="0 0 48 48" fill="none" xmlns="http://www.w3.org/2000/svg">
<path d="M38.725 32.1136C38.725 32.2282 38.706 32.3618 38.687 32.4955L37.262 42.5564C37.053 43.95 35.951 45 34.526 45H21.625C20.846 45 20.124 44.6755 19.611 44.16L10.225 34.7291L11.726 33.2018C12.106 32.82 12.638 32.5718 13.227 32.5718C13.398 32.5718 13.531 32.61 13.683 32.6291L20.2 34.0036V13.5C20.2 11.9155 21.473 10.6364 23.05 10.6364C24.627 10.6364 25.9 11.9155 25.9 13.5V24.9545H27.344C27.705 24.9545 28.047 25.0309 28.37 25.1645L36.996 29.4791C38.003 29.8991 38.725 30.93 38.725 32.1136ZM39.447 8.47909C36.711 5.23364 30.84 3 24 3C17.16 3 11.289 5.23364 8.553 8.47909L5 4.90909V14.4545H14.5L10.567 10.5027C12.467 8.04 17.597 5.86364 24 5.86364C30.403 5.86364 35.533 8.04 37.433 10.5027L33.5 14.4545H43V4.90909L39.447 8.47909Z" fill="#4285F4"/>
</svg>
